<svg xmlns="http://www.w3.org/2000/svg" width="1780" height="1560" viewBox="0 0 1780 1560">
<defs>
<style>
  text{font-family:Arial,Helvetica,sans-serif}
  .title{font-size:25px;font-weight:700;fill:#0f172a}.subtitle{font-size:13px;fill:#475569}.note{font-size:11px;fill:#64748b}
  .entity-title{font-size:13px;font-weight:700;fill:white}.entity-layer{font-size:9px;fill:white;opacity:.9}.field{font-size:11px;fill:#0f172a}.type{font-size:10px;fill:#475569}.key{font-size:8px;font-weight:700;fill:white}
  .edge{stroke:#334155;stroke-width:1.55;fill:none;opacity:.72}.edge-logical{stroke:#f97316;stroke-width:1.8;fill:none;stroke-dasharray:7 5;opacity:.9}
  .edge-label{font-size:9px;fill:#334155}.edge-label-logical{font-size:9px;fill:#c2410c}.cardinality{font-size:9px;font-weight:700;fill:#0f172a}.caption{font-size:12px;fill:#334155}.legend{font-size:11px;fill:#334155}
</style>
</defs>
<rect width="100%" height="100%" fill="#ffffff"/>
<text x="890" y="36" text-anchor="middle" class="title">Figure 7. Entity-Relationship Diagram: Actual Table Connections</text>
<text x="890" y="60" text-anchor="middle" class="subtitle">CSUCC Campus ANPR Security Monitoring System - generated from PostgreSQL foreign keys</text>
<text x="890" y="82" text-anchor="middle" class="note">Solid lines are enforced foreign keys. Dashed orange lines are logical ANPR engine links found in data columns but not enforced by database constraints.</text>
<path d="M1370.0,589.0 C1394.5,583.0 1415.5,555.0 1440.0,549.0" class="edge"/>
<text x="1378.0" y="583.0" class="cardinality">1</text>
<text x="1412.0" y="543.0" class="cardinality">0..N</text>
<path d="M880.0,438.0 C953.5,460.6 1016.5,566.4 1090.0,589.0" class="edge"/>
<text x="888.0" y="432.0" class="cardinality">1</text>
<text x="1062.0" y="583.0" class="cardinality">0..N</text>
<path d="M1020.0,589.0 C1044.5,589.0 1065.5,589.0 1090.0,589.0" class="edge"/>
<text x="1028.0" y="583.0" class="cardinality">1</text>
<text x="1062.0" y="583.0" class="cardinality">0..N</text>
<path d="M880.0,208.0 C1002.5,247.3 1107.5,430.7 1230.0,470.0" class="edge"/>
<text x="888.0" y="202.0" class="cardinality">1</text>
<text x="1202.0" y="464.0" class="cardinality">0..N</text>
<path d="M340.0,489.0 C602.5,504.0 827.5,574.0 1090.0,589.0" class="edge"/>
<text x="348.0" y="483.0" class="cardinality">1</text>
<text x="1062.0" y="583.0" class="cardinality">0..N</text>
<path d="M670.0,489.0 C817.0,504.0 943.0,574.0 1090.0,589.0" class="edge"/>
<text x="678.0" y="483.0" class="cardinality">1</text>
<text x="1062.0" y="583.0" class="cardinality">0..N</text>
<path d="M200.0,588.0 C315.5,607.8 414.5,700.2 530.0,720.0" class="edge"/>
<text x="208.0" y="582.0" class="cardinality">1</text>
<text x="502.0" y="714.0" class="cardinality">0..N</text>
<path d="M530.0,588.0 C530.0,607.8 530.0,700.2 530.0,720.0" class="edge"/>
<text x="538.0" y="582.0" class="cardinality">1</text>
<text x="538.0" y="714.0" class="cardinality">0..N</text>
<path d="M1020.0,349.0 C1044.5,346.0 1065.5,332.0 1090.0,329.0" class="edge"/>
<text x="1028.0" y="343.0" class="cardinality">1</text>
<text x="1062.0" y="323.0" class="cardinality">0..1</text>
<path d="M880.0,208.0 C880.0,215.8 880.0,252.2 880.0,260.0" class="edge"/>
<text x="888.0" y="202.0" class="cardinality">1</text>
<text x="888.0" y="254.0" class="cardinality">0..N</text>
<path d="M340.0,1139.0 C357.5,1160.0 372.5,1258.0 390.0,1279.0" class="edge"/>
<text x="348.0" y="1133.0" class="cardinality">1</text>
<text x="362.0" y="1273.0" class="cardinality">0..N</text>
<path d="M200.0,588.0 C315.5,678.3 414.5,1099.7 530.0,1190.0" class="edge"/>
<text x="208.0" y="582.0" class="cardinality">1</text>
<text x="502.0" y="1184.0" class="cardinality">0..N</text>
<path d="M880.0,438.0 C880.0,442.8 880.0,465.2 880.0,470.0" class="edge"/>
<text x="888.0" y="432.0" class="cardinality">1</text>
<text x="888.0" y="464.0" class="cardinality">0..N</text>
<path d="M880.0,208.0 C880.0,247.3 880.0,430.7 880.0,470.0" class="edge"/>
<text x="888.0" y="202.0" class="cardinality">1</text>
<text x="888.0" y="464.0" class="cardinality">0..N</text>
<path d="M340.0,489.0 C480.0,504.0 600.0,574.0 740.0,589.0" class="edge"/>
<text x="348.0" y="483.0" class="cardinality">1</text>
<text x="712.0" y="583.0" class="cardinality">0..N</text>
<path d="M670.0,489.0 C694.5,504.0 715.5,574.0 740.0,589.0" class="edge"/>
<text x="678.0" y="483.0" class="cardinality">1</text>
<text x="712.0" y="583.0" class="cardinality">0..N</text>
<path d="M880.0,208.0 C642.0,284.8 438.0,643.2 200.0,720.0" class="edge"/>
<text x="862.0" y="202.0" class="cardinality">1</text>
<text x="208.0" y="714.0" class="cardinality">0..N</text>
<path d="M200.0,588.0 C200.0,696.3 200.0,1201.7 200.0,1310.0" class="edge"/>
<text x="208.0" y="582.0" class="cardinality">1</text>
<text x="208.0" y="1304.0" class="cardinality">0..N</text>
<path d="M200.0,588.0 C331.2,701.8 430.2,1263.2 530.0,1390.0" class="edge"/>
<text x="208.0" y="582.0" class="cardinality">1</text>
<text x="502.0" y="1384.0" class="cardinality">0..N</text>
<path d="M200.0,588.0 C299.8,714.8 398.8,1276.2 530.0,1390.0" class="edge"/>
<text x="208.0" y="582.0" class="cardinality">1</text>
<text x="502.0" y="1384.0" class="cardinality">0..N</text>
<path d="M200.0,588.0 C200.0,655.8 200.0,972.2 200.0,1040.0" class="edge"/>
<text x="208.0" y="582.0" class="cardinality">1</text>
<text x="208.0" y="1034.0" class="cardinality">0..N</text>
<path d="M200.0,588.0 C438.0,678.3 642.0,1099.7 880.0,1190.0" class="edge"/>
<text x="208.0" y="582.0" class="cardinality">1</text>
<text x="852.0" y="1184.0" class="cardinality">0..N</text>
<path d="M340.0,489.0 C357.5,472.0 372.5,472.0 390.0,489.0" class="edge"/>
<text x="348.0" y="483.0" class="cardinality">1</text>
<text x="362.0" y="483.0" class="cardinality">0..N</text>
<path d="M340.0,489.0 C357.5,506.0 372.5,506.0 390.0,489.0" class="edge"/>
<text x="348.0" y="483.0" class="cardinality">1</text>
<text x="362.0" y="483.0" class="cardinality">0..N</text>
<path d="M880.0,708.0 C1002.5,724.8 1107.5,803.2 1230.0,820.0" class="edge"/>
<text x="888.0" y="702.0" class="cardinality">1</text>
<text x="1202.0" y="814.0" class="cardinality">0..N</text>
<path d="M340.0,489.0 C602.5,552.0 827.5,846.0 1090.0,909.0" class="edge"/>
<text x="348.0" y="483.0" class="cardinality">1</text>
<text x="1062.0" y="903.0" class="cardinality">0..N</text>
<path d="M670.0,489.0 C817.0,552.0 943.0,846.0 1090.0,909.0" class="edge"/>
<text x="678.0" y="483.0" class="cardinality">1</text>
<text x="1062.0" y="903.0" class="cardinality">0..N</text>
<path d="M340.0,819.0 C406.5,843.1 463.5,955.9 530.0,980.0" class="edge"/>
<text x="348.0" y="813.0" class="cardinality">1</text>
<text x="502.0" y="974.0" class="cardinality">0..N</text>
<path d="M200.0,588.0 C217.0,607.8 217.0,700.2 200.0,720.0" class="edge"/>
<text x="208.0" y="582.0" class="cardinality">1</text>
<text x="208.0" y="714.0" class="cardinality">0..N</text>
<path d="M200.0,588.0 C183.0,607.8 183.0,700.2 200.0,720.0" class="edge"/>
<text x="208.0" y="582.0" class="cardinality">1</text>
<text x="208.0" y="714.0" class="cardinality">0..N</text>
<path d="M1580.0,288.0 C1580.0,385.8 1580.0,842.2 1580.0,940.0" class="edge-logical"/>
<text x="1588.0" y="282.0" class="cardinality">1</text>
<text x="1588.0" y="934.0" class="cardinality">0..N</text>
<path d="M670.0,489.0 C939.5,573.0 1170.5,965.0 1440.0,1049.0" class="edge-logical"/>
<text x="678.0" y="483.0" class="cardinality">1</text>
<text x="1412.0" y="1043.0" class="cardinality">0..N</text>
<rect x="1362.6" y="559.0" width="84.8" height="15" rx="3" fill="#ffffff" opacity="0.92"/>
<text x="1405.0" y="570.0" text-anchor="middle" class="edge-label">capture_id -&gt; id</text>
<rect x="945.2" y="503.5" width="79.5" height="15" rx="3" fill="#ffffff" opacity="0.92"/>
<text x="985.0" y="514.5" text-anchor="middle" class="edge-label">camera_id -&gt; id</text>
<rect x="1007.3" y="579.0" width="95.4" height="15" rx="3" fill="#ffffff" opacity="0.92"/>
<text x="1055.0" y="590.0" text-anchor="middle" class="edge-label">entry_log_id -&gt; id</text>
<rect x="1020.5" y="329.0" width="68.9" height="15" rx="3" fill="#ffffff" opacity="0.92"/>
<text x="1055.0" y="340.0" text-anchor="middle" class="edge-label">gate_id -&gt; id</text>
<rect x="670.0" y="529.0" width="90.1" height="15" rx="3" fill="#ffffff" opacity="0.92"/>
<text x="715.0" y="540.0" text-anchor="middle" class="edge-label">recorded_by -&gt; id</text>
<rect x="837.6" y="529.0" width="84.8" height="15" rx="3" fill="#ffffff" opacity="0.92"/>
<text x="880.0" y="540.0" text-anchor="middle" class="edge-label">vehicle_id -&gt; id</text>
<rect x="327.9" y="644.0" width="74.2" height="15" rx="3" fill="#ffffff" opacity="0.92"/>
<text x="365.0" y="655.0" text-anchor="middle" class="edge-label">added_by -&gt; id</text>
<rect x="487.6" y="644.0" width="84.8" height="15" rx="3" fill="#ffffff" opacity="0.92"/>
<text x="530.0" y="655.0" text-anchor="middle" class="edge-label">vehicle_id -&gt; id</text>
<rect x="1015.2" y="329.0" width="79.5" height="15" rx="3" fill="#ffffff" opacity="0.92"/>
<text x="1055.0" y="340.0" text-anchor="middle" class="edge-label">camera_id -&gt; id</text>
<rect x="845.5" y="224.0" width="68.9" height="15" rx="3" fill="#ffffff" opacity="0.92"/>
<text x="880.0" y="235.0" text-anchor="middle" class="edge-label">gate_id -&gt; id</text>
<rect x="327.9" y="1199.0" width="74.2" height="15" rx="3" fill="#ffffff" opacity="0.92"/>
<text x="365.0" y="1210.0" text-anchor="middle" class="edge-label">shift_id -&gt; id</text>
<rect x="330.6" y="879.0" width="68.9" height="15" rx="3" fill="#ffffff" opacity="0.92"/>
<text x="365.0" y="890.0" text-anchor="middle" class="edge-label">user_id -&gt; id</text>
<rect x="840.2" y="444.0" width="79.5" height="15" rx="3" fill="#ffffff" opacity="0.92"/>
<text x="880.0" y="455.0" text-anchor="middle" class="edge-label">camera_id -&gt; id</text>
<rect x="845.5" y="329.0" width="68.9" height="15" rx="3" fill="#ffffff" opacity="0.92"/>
<text x="880.0" y="340.0" text-anchor="middle" class="edge-label">gate_id -&gt; id</text>
<rect x="505.6" y="529.0" width="68.9" height="15" rx="3" fill="#ffffff" opacity="0.92"/>
<text x="540.0" y="540.0" text-anchor="middle" class="edge-label">user_id -&gt; id</text>
<rect x="662.6" y="529.0" width="84.8" height="15" rx="3" fill="#ffffff" opacity="0.92"/>
<text x="705.0" y="540.0" text-anchor="middle" class="edge-label">vehicle_id -&gt; id</text>
<rect x="505.6" y="454.0" width="68.9" height="15" rx="3" fill="#ffffff" opacity="0.92"/>
<text x="540.0" y="465.0" text-anchor="middle" class="edge-label">gate_id -&gt; id</text>
<rect x="165.6" y="939.0" width="68.9" height="15" rx="3" fill="#ffffff" opacity="0.92"/>
<text x="200.0" y="950.0" text-anchor="middle" class="edge-label">user_id -&gt; id</text>
<rect x="346.3" y="972.5" width="68.9" height="15" rx="3" fill="#ffffff" opacity="0.92"/>
<text x="380.7" y="983.5" text-anchor="middle" class="edge-label">user_id -&gt; id</text>
<rect x="304.2" y="985.5" width="90.1" height="15" rx="3" fill="#ffffff" opacity="0.92"/>
<text x="349.3" y="996.5" text-anchor="middle" class="edge-label">verified_by -&gt; id</text>
<rect x="165.6" y="804.0" width="68.9" height="15" rx="3" fill="#ffffff" opacity="0.92"/>
<text x="200.0" y="815.0" text-anchor="middle" class="edge-label">user_id -&gt; id</text>
<rect x="502.9" y="879.0" width="74.2" height="15" rx="3" fill="#ffffff" opacity="0.92"/>
<text x="540.0" y="890.0" text-anchor="middle" class="edge-label">actor_id -&gt; id</text>
<rect x="319.9" y="462.0" width="90.1" height="15" rx="3" fill="#ffffff" opacity="0.92"/>
<text x="365.0" y="473.0" text-anchor="middle" class="edge-label">approved_by -&gt; id</text>
<rect x="330.6" y="496.0" width="68.9" height="15" rx="3" fill="#ffffff" opacity="0.92"/>
<text x="365.0" y="507.0" text-anchor="middle" class="edge-label">user_id -&gt; id</text>
<rect x="1007.3" y="754.0" width="95.4" height="15" rx="3" fill="#ffffff" opacity="0.92"/>
<text x="1055.0" y="765.0" text-anchor="middle" class="edge-label">entry_log_id -&gt; id</text>
<rect x="670.0" y="689.0" width="90.1" height="15" rx="3" fill="#ffffff" opacity="0.92"/>
<text x="715.0" y="700.0" text-anchor="middle" class="edge-label">resolved_by -&gt; id</text>
<rect x="837.6" y="689.0" width="84.8" height="15" rx="3" fill="#ffffff" opacity="0.92"/>
<text x="880.0" y="700.0" text-anchor="middle" class="edge-label">vehicle_id -&gt; id</text>
<rect x="392.6" y="889.5" width="84.8" height="15" rx="3" fill="#ffffff" opacity="0.92"/>
<text x="435.0" y="900.5" text-anchor="middle" class="edge-label">visitor_id -&gt; id</text>
<rect x="174.6" y="644.0" width="84.8" height="15" rx="3" fill="#ffffff" opacity="0.92"/>
<text x="217.0" y="655.0" text-anchor="middle" class="edge-label">created_by -&gt; id</text>
<rect x="135.3" y="644.0" width="95.4" height="15" rx="3" fill="#ffffff" opacity="0.92"/>
<text x="183.0" y="655.0" text-anchor="middle" class="edge-label">host_user_id -&gt; id</text>
<rect x="1500.5" y="604.0" width="159.0" height="15" rx="3" fill="#ffffff" opacity="0.92"/>
<text x="1580.0" y="615.0" text-anchor="middle" class="edge-label-logical">camera_id -&gt; camera_id logical</text>
<rect x="960.0" y="759.0" width="190.0" height="15" rx="3" fill="#ffffff" opacity="0.92"/>
<text x="1055.0" y="770.0" text-anchor="middle" class="edge-label-logical">normalized_plate_text -&gt; plate_number logical</text>
<g id="users">
<rect x="60" y="390" width="280" height="198" rx="8" fill="#dbeafe" stroke="#1d4ed8" stroke-width="1.4"/>
<rect x="60" y="390" width="280" height="34" rx="8" fill="#1d4ed8"/>
<rect x="60" y="416" width="280" height="8" fill="#1d4ed8"/>
<text x="72" y="410" class="entity-title">USERS</text>
<text x="328" y="410" text-anchor="end" class="entity-layer">Identity / Account</text>
<rect x="70" y="432" width="36" height="14" rx="3" fill="#1d4ed8"/>
<text x="88" y="442" text-anchor="middle" class="key">PK</text>
<text x="114" y="444" class="field">id</text>
<text x="328" y="444" text-anchor="end" class="type">uuid</text>
<rect x="70" y="452" width="36" height="14" rx="3" fill="#1d4ed8"/>
<text x="88" y="462" text-anchor="middle" class="key">UK</text>
<text x="114" y="464" class="field">email</text>
<text x="328" y="464" text-anchor="end" class="type">varchar</text>
<rect x="70" y="472" width="36" height="14" rx="3" fill="#1d4ed8"/>
<text x="88" y="482" text-anchor="middle" class="key">UK</text>
<text x="114" y="484" class="field">username</text>
<text x="328" y="484" text-anchor="end" class="type">varchar</text>
<text x="74" y="504" class="field">role</text>
<text x="328" y="504" text-anchor="end" class="type">enum</text>
<text x="74" y="524" class="field">status</text>
<text x="328" y="524" text-anchor="end" class="type">enum</text>
<rect x="70" y="532" width="36" height="14" rx="3" fill="#1d4ed8"/>
<text x="88" y="542" text-anchor="middle" class="key">GEN</text>
<text x="114" y="544" class="field">full_name</text>
<text x="328" y="544" text-anchor="end" class="type">varchar</text>
<rect x="70" y="552" width="36" height="14" rx="3" fill="#1d4ed8"/>
<text x="88" y="562" text-anchor="middle" class="key">UK</text>
<text x="114" y="564" class="field">registration_token</text>
<text x="328" y="564" text-anchor="end" class="type">uuid</text>
</g>
<g id="vehicles">
<rect x="390" y="390" width="280" height="198" rx="8" fill="#dbeafe" stroke="#1d4ed8" stroke-width="1.4"/>
<rect x="390" y="390" width="280" height="34" rx="8" fill="#1d4ed8"/>
<rect x="390" y="416" width="280" height="8" fill="#1d4ed8"/>
<text x="402" y="410" class="entity-title">VEHICLES</text>
<text x="658" y="410" text-anchor="end" class="entity-layer">Identity / Account</text>
<rect x="400" y="432" width="36" height="14" rx="3" fill="#1d4ed8"/>
<text x="418" y="442" text-anchor="middle" class="key">PK</text>
<text x="444" y="444" class="field">id</text>
<text x="658" y="444" text-anchor="end" class="type">uuid</text>
<rect x="400" y="452" width="36" height="14" rx="3" fill="#1d4ed8"/>
<text x="418" y="462" text-anchor="middle" class="key">FK</text>
<text x="444" y="464" class="field">user_id</text>
<text x="658" y="464" text-anchor="end" class="type">uuid</text>
<rect x="400" y="472" width="36" height="14" rx="3" fill="#1d4ed8"/>
<text x="418" y="482" text-anchor="middle" class="key">FK</text>
<text x="444" y="484" class="field">approved_by</text>
<text x="658" y="484" text-anchor="end" class="type">uuid</text>
<rect x="400" y="492" width="36" height="14" rx="3" fill="#1d4ed8"/>
<text x="418" y="502" text-anchor="middle" class="key">UK</text>
<text x="444" y="504" class="field">plate_number</text>
<text x="658" y="504" text-anchor="end" class="type">varchar</text>
<text x="404" y="524" class="field">type</text>
<text x="658" y="524" text-anchor="end" class="type">enum</text>
<text x="404" y="544" class="field">status</text>
<text x="658" y="544" text-anchor="end" class="type">enum</text>
<text x="404" y="564" class="field">is_on_campus</text>
<text x="658" y="564" text-anchor="end" class="type">boolean</text>
</g>
<g id="gates">
<rect x="740" y="90" width="280" height="118" rx="8" fill="#dcfce7" stroke="#15803d" stroke-width="1.4"/>
<rect x="740" y="90" width="280" height="34" rx="8" fill="#15803d"/>
<rect x="740" y="116" width="280" height="8" fill="#15803d"/>
<text x="752" y="110" class="entity-title">GATES</text>
<text x="1008" y="110" text-anchor="end" class="entity-layer">Gate Infrastructure</text>
<rect x="750" y="132" width="36" height="14" rx="3" fill="#15803d"/>
<text x="768" y="142" text-anchor="middle" class="key">PK</text>
<text x="794" y="144" class="field">id</text>
<text x="1008" y="144" text-anchor="end" class="type">uuid</text>
<text x="754" y="164" class="field">name</text>
<text x="1008" y="164" text-anchor="end" class="type">varchar</text>
<text x="754" y="184" class="field">status</text>
<text x="1008" y="184" text-anchor="end" class="type">enum</text>
</g>
<g id="cameras">
<rect x="740" y="260" width="280" height="178" rx="8" fill="#dcfce7" stroke="#15803d" stroke-width="1.4"/>
<rect x="740" y="260" width="280" height="34" rx="8" fill="#15803d"/>
<rect x="740" y="286" width="280" height="8" fill="#15803d"/>
<text x="752" y="280" class="entity-title">CAMERAS</text>
<text x="1008" y="280" text-anchor="end" class="entity-layer">Gate Infrastructure</text>
<rect x="750" y="302" width="36" height="14" rx="3" fill="#15803d"/>
<text x="768" y="312" text-anchor="middle" class="key">PK</text>
<text x="794" y="314" class="field">id</text>
<text x="1008" y="314" text-anchor="end" class="type">uuid</text>
<rect x="750" y="322" width="36" height="14" rx="3" fill="#15803d"/>
<text x="768" y="332" text-anchor="middle" class="key">FK</text>
<text x="794" y="334" class="field">gate_id</text>
<text x="1008" y="334" text-anchor="end" class="type">uuid</text>
<text x="754" y="354" class="field">name</text>
<text x="1008" y="354" text-anchor="end" class="type">varchar</text>
<text x="754" y="374" class="field">direction</text>
<text x="1008" y="374" text-anchor="end" class="type">enum</text>
<text x="754" y="394" class="field">is_active</text>
<text x="1008" y="394" text-anchor="end" class="type">boolean</text>
<text x="754" y="414" class="field">is_streaming</text>
<text x="1008" y="414" text-anchor="end" class="type">boolean</text>
</g>
<g id="camera_settings">
<rect x="1090" y="250" width="280" height="158" rx="8" fill="#dcfce7" stroke="#15803d" stroke-width="1.4"/>
<rect x="1090" y="250" width="280" height="34" rx="8" fill="#15803d"/>
<rect x="1090" y="276" width="280" height="8" fill="#15803d"/>
<text x="1102" y="270" class="entity-title">CAMERA_SETTINGS</text>
<text x="1358" y="270" text-anchor="end" class="entity-layer">Gate Infrastructure</text>
<rect x="1100" y="292" width="36" height="14" rx="3" fill="#15803d"/>
<text x="1118" y="302" text-anchor="middle" class="key">PK</text>
<text x="1144" y="304" class="field">id</text>
<text x="1358" y="304" text-anchor="end" class="type">uuid</text>
<rect x="1100" y="312" width="36" height="14" rx="3" fill="#15803d"/>
<text x="1118" y="322" text-anchor="middle" class="key">FK/UK</text>
<text x="1144" y="324" class="field">camera_id</text>
<text x="1358" y="324" text-anchor="end" class="type">uuid</text>
<text x="1104" y="344" class="field">detection_threshold</text>
<text x="1358" y="344" text-anchor="end" class="type">integer</text>
<text x="1104" y="364" class="field">recording_mode</text>
<text x="1358" y="364" text-anchor="end" class="type">enum</text>
<text x="1104" y="384" class="field">ai_night_vision</text>
<text x="1358" y="384" text-anchor="end" class="type">boolean</text>
</g>
<g id="entry_logs">
<rect x="740" y="470" width="280" height="238" rx="8" fill="#fef3c7" stroke="#b45309" stroke-width="1.4"/>
<rect x="740" y="470" width="280" height="34" rx="8" fill="#b45309"/>
<rect x="740" y="496" width="280" height="8" fill="#b45309"/>
<text x="752" y="490" class="entity-title">ENTRY_LOGS</text>
<text x="1008" y="490" text-anchor="end" class="entity-layer">Entry-Exit Logging</text>
<rect x="750" y="512" width="36" height="14" rx="3" fill="#b45309"/>
<text x="768" y="522" text-anchor="middle" class="key">PK</text>
<text x="794" y="524" class="field">id</text>
<text x="1008" y="524" text-anchor="end" class="type">uuid</text>
<rect x="750" y="532" width="36" height="14" rx="3" fill="#b45309"/>
<text x="768" y="542" text-anchor="middle" class="key">FK</text>
<text x="794" y="544" class="field">camera_id</text>
<text x="1008" y="544" text-anchor="end" class="type">uuid</text>
<rect x="750" y="552" width="36" height="14" rx="3" fill="#b45309"/>
<text x="768" y="562" text-anchor="middle" class="key">FK</text>
<text x="794" y="564" class="field">gate_id</text>
<text x="1008" y="564" text-anchor="end" class="type">uuid</text>
<rect x="750" y="572" width="36" height="14" rx="3" fill="#b45309"/>
<text x="768" y="582" text-anchor="middle" class="key">FK</text>
<text x="794" y="584" class="field">vehicle_id</text>
<text x="1008" y="584" text-anchor="end" class="type">uuid</text>
<rect x="750" y="592" width="36" height="14" rx="3" fill="#b45309"/>
<text x="768" y="602" text-anchor="middle" class="key">FK</text>
<text x="794" y="604" class="field">user_id</text>
<text x="1008" y="604" text-anchor="end" class="type">uuid</text>
<text x="754" y="624" class="field">detected_plate_number</text>
<text x="1008" y="624" text-anchor="end" class="type">varchar</text>
<text x="754" y="644" class="field">direction</text>
<text x="1008" y="644" text-anchor="end" class="type">enum</text>
<text x="754" y="664" class="field">authorization_status</text>
<text x="1008" y="664" text-anchor="end" class="type">varchar</text>
<text x="754" y="684" class="field">timestamp</text>
<text x="1008" y="684" text-anchor="end" class="type">timestamptz</text>
</g>
<g id="anpr_plate_captures">
<rect x="1090" y="470" width="280" height="238" rx="8" fill="#ffedd5" stroke="#c2410c" stroke-width="1.4"/>
<rect x="1090" y="470" width="280" height="34" rx="8" fill="#c2410c"/>
<rect x="1090" y="496" width="280" height="8" fill="#c2410c"/>
<text x="1102" y="490" class="entity-title">ANPR_PLATE_CAPTURES</text>
<text x="1358" y="490" text-anchor="end" class="entity-layer">ANPR Evidence</text>
<rect x="1100" y="512" width="36" height="14" rx="3" fill="#c2410c"/>
<text x="1118" y="522" text-anchor="middle" class="key">PK</text>
<text x="1144" y="524" class="field">id</text>
<text x="1358" y="524" text-anchor="end" class="type">uuid</text>
<rect x="1100" y="532" width="36" height="14" rx="3" fill="#c2410c"/>
<text x="1118" y="542" text-anchor="middle" class="key">FK</text>
<text x="1144" y="544" class="field">camera_id</text>
<text x="1358" y="544" text-anchor="end" class="type">uuid</text>
<rect x="1100" y="552" width="36" height="14" rx="3" fill="#c2410c"/>
<text x="1118" y="562" text-anchor="middle" class="key">FK</text>
<text x="1144" y="564" class="field">gate_id</text>
<text x="1358" y="564" text-anchor="end" class="type">uuid</text>
<rect x="1100" y="572" width="36" height="14" rx="3" fill="#c2410c"/>
<text x="1118" y="582" text-anchor="middle" class="key">FK</text>
<text x="1144" y="584" class="field">vehicle_id</text>
<text x="1358" y="584" text-anchor="end" class="type">uuid</text>
<rect x="1100" y="592" width="36" height="14" rx="3" fill="#c2410c"/>
<text x="1118" y="602" text-anchor="middle" class="key">FK</text>
<text x="1144" y="604" class="field">recorded_by</text>
<text x="1358" y="604" text-anchor="end" class="type">uuid</text>
<rect x="1100" y="612" width="36" height="14" rx="3" fill="#c2410c"/>
<text x="1118" y="622" text-anchor="middle" class="key">FK</text>
<text x="1144" y="624" class="field">entry_log_id</text>
<text x="1358" y="624" text-anchor="end" class="type">uuid</text>
<text x="1104" y="644" class="field">plate_normalized</text>
<text x="1358" y="644" text-anchor="end" class="type">varchar</text>
<text x="1104" y="664" class="field">alert_kind</text>
<text x="1358" y="664" text-anchor="end" class="type">enum</text>
<text x="1104" y="684" class="field">confidence_score</text>
<text x="1358" y="684" text-anchor="end" class="type">numeric</text>
</g>
<g id="anpr_anomaly_events">
<rect x="1440" y="470" width="280" height="158" rx="8" fill="#ffedd5" stroke="#c2410c" stroke-width="1.4"/>
<rect x="1440" y="470" width="280" height="34" rx="8" fill="#c2410c"/>
<rect x="1440" y="496" width="280" height="8" fill="#c2410c"/>
<text x="1452" y="490" class="entity-title">ANPR_ANOMALY_EVENTS</text>
<text x="1708" y="490" text-anchor="end" class="entity-layer">ANPR Evidence</text>
<rect x="1450" y="512" width="36" height="14" rx="3" fill="#c2410c"/>
<text x="1468" y="522" text-anchor="middle" class="key">PK</text>
<text x="1494" y="524" class="field">id</text>
<text x="1708" y="524" text-anchor="end" class="type">uuid</text>
<rect x="1450" y="532" width="36" height="14" rx="3" fill="#c2410c"/>
<text x="1468" y="542" text-anchor="middle" class="key">FK</text>
<text x="1494" y="544" class="field">capture_id</text>
<text x="1708" y="544" text-anchor="end" class="type">uuid</text>
<text x="1454" y="564" class="field">kind</text>
<text x="1708" y="564" text-anchor="end" class="type">enum</text>
<text x="1454" y="584" class="field">status</text>
<text x="1708" y="584" text-anchor="end" class="type">varchar</text>
<text x="1454" y="604" class="field">created_at</text>
<text x="1708" y="604" text-anchor="end" class="type">timestamptz</text>
</g>
<g id="violations">
<rect x="1090" y="820" width="280" height="178" rx="8" fill="#fee2e2" stroke="#b91c1c" stroke-width="1.4"/>
<rect x="1090" y="820" width="280" height="34" rx="8" fill="#b91c1c"/>
<rect x="1090" y="846" width="280" height="8" fill="#b91c1c"/>
<text x="1102" y="840" class="entity-title">VIOLATIONS</text>
<text x="1358" y="840" text-anchor="end" class="entity-layer">Security Control</text>
<rect x="1100" y="862" width="36" height="14" rx="3" fill="#b91c1c"/>
<text x="1118" y="872" text-anchor="middle" class="key">PK</text>
<text x="1144" y="874" class="field">id</text>
<text x="1358" y="874" text-anchor="end" class="type">uuid</text>
<rect x="1100" y="882" width="36" height="14" rx="3" fill="#b91c1c"/>
<text x="1118" y="892" text-anchor="middle" class="key">FK</text>
<text x="1144" y="894" class="field">entry_log_id</text>
<text x="1358" y="894" text-anchor="end" class="type">uuid</text>
<rect x="1100" y="902" width="36" height="14" rx="3" fill="#b91c1c"/>
<text x="1118" y="912" text-anchor="middle" class="key">FK</text>
<text x="1144" y="914" class="field">vehicle_id</text>
<text x="1358" y="914" text-anchor="end" class="type">uuid</text>
<rect x="1100" y="922" width="36" height="14" rx="3" fill="#b91c1c"/>
<text x="1118" y="932" text-anchor="middle" class="key">FK</text>
<text x="1144" y="934" class="field">resolved_by</text>
<text x="1358" y="934" text-anchor="end" class="type">uuid</text>
<text x="1104" y="954" class="field">type</text>
<text x="1358" y="954" text-anchor="end" class="type">enum</text>
<text x="1104" y="974" class="field">status</text>
<text x="1358" y="974" text-anchor="end" class="type">varchar</text>
</g>
<g id="blacklist_records">
<rect x="390" y="720" width="280" height="158" rx="8" fill="#fee2e2" stroke="#b91c1c" stroke-width="1.4"/>
<rect x="390" y="720" width="280" height="34" rx="8" fill="#b91c1c"/>
<rect x="390" y="746" width="280" height="8" fill="#b91c1c"/>
<text x="402" y="740" class="entity-title">BLACKLIST_RECORDS</text>
<text x="658" y="740" text-anchor="end" class="entity-layer">Security Control</text>
<rect x="400" y="762" width="36" height="14" rx="3" fill="#b91c1c"/>
<text x="418" y="772" text-anchor="middle" class="key">PK</text>
<text x="444" y="774" class="field">id</text>
<text x="658" y="774" text-anchor="end" class="type">uuid</text>
<rect x="400" y="782" width="36" height="14" rx="3" fill="#b91c1c"/>
<text x="418" y="792" text-anchor="middle" class="key">FK</text>
<text x="444" y="794" class="field">vehicle_id</text>
<text x="658" y="794" text-anchor="end" class="type">uuid</text>
<rect x="400" y="802" width="36" height="14" rx="3" fill="#b91c1c"/>
<text x="418" y="812" text-anchor="middle" class="key">FK</text>
<text x="444" y="814" class="field">added_by</text>
<text x="658" y="814" text-anchor="end" class="type">uuid</text>
<text x="404" y="834" class="field">reason</text>
<text x="658" y="834" text-anchor="end" class="type">text</text>
<text x="404" y="854" class="field">is_active</text>
<text x="658" y="854" text-anchor="end" class="type">boolean</text>
</g>
<g id="visitors">
<rect x="60" y="720" width="280" height="198" rx="8" fill="#ccfbf1" stroke="#0f766e" stroke-width="1.4"/>
<rect x="60" y="720" width="280" height="34" rx="8" fill="#0f766e"/>
<rect x="60" y="746" width="280" height="8" fill="#0f766e"/>
<text x="72" y="740" class="entity-title">VISITORS</text>
<text x="328" y="740" text-anchor="end" class="entity-layer">Visitor Access</text>
<rect x="70" y="762" width="36" height="14" rx="3" fill="#0f766e"/>
<text x="88" y="772" text-anchor="middle" class="key">PK</text>
<text x="114" y="774" class="field">id</text>
<text x="328" y="774" text-anchor="end" class="type">uuid</text>
<rect x="70" y="782" width="36" height="14" rx="3" fill="#0f766e"/>
<text x="88" y="792" text-anchor="middle" class="key">FK</text>
<text x="114" y="794" class="field">host_user_id</text>
<text x="328" y="794" text-anchor="end" class="type">uuid</text>
<rect x="70" y="802" width="36" height="14" rx="3" fill="#0f766e"/>
<text x="88" y="812" text-anchor="middle" class="key">FK</text>
<text x="114" y="814" class="field">gate_id</text>
<text x="328" y="814" text-anchor="end" class="type">uuid</text>
<rect x="70" y="822" width="36" height="14" rx="3" fill="#0f766e"/>
<text x="88" y="832" text-anchor="middle" class="key">FK</text>
<text x="114" y="834" class="field">created_by</text>
<text x="328" y="834" text-anchor="end" class="type">uuid</text>
<text x="74" y="854" class="field">full_name</text>
<text x="328" y="854" text-anchor="end" class="type">varchar</text>
<text x="74" y="874" class="field">check_in_at</text>
<text x="328" y="874" text-anchor="end" class="type">timestamptz</text>
<text x="74" y="894" class="field">check_out_at</text>
<text x="328" y="894" text-anchor="end" class="type">timestamptz</text>
</g>
<g id="visitor_vehicles">
<rect x="390" y="980" width="280" height="138" rx="8" fill="#ccfbf1" stroke="#0f766e" stroke-width="1.4"/>
<rect x="390" y="980" width="280" height="34" rx="8" fill="#0f766e"/>
<rect x="390" y="1006" width="280" height="8" fill="#0f766e"/>
<text x="402" y="1000" class="entity-title">VISITOR_VEHICLES</text>
<text x="658" y="1000" text-anchor="end" class="entity-layer">Visitor Access</text>
<rect x="400" y="1022" width="36" height="14" rx="3" fill="#0f766e"/>
<text x="418" y="1032" text-anchor="middle" class="key">PK</text>
<text x="444" y="1034" class="field">id</text>
<text x="658" y="1034" text-anchor="end" class="type">uuid</text>
<rect x="400" y="1042" width="36" height="14" rx="3" fill="#0f766e"/>
<text x="418" y="1052" text-anchor="middle" class="key">FK</text>
<text x="444" y="1054" class="field">visitor_id</text>
<text x="658" y="1054" text-anchor="end" class="type">uuid</text>
<text x="404" y="1074" class="field">plate_number</text>
<text x="658" y="1074" text-anchor="end" class="type">varchar</text>
<text x="404" y="1094" class="field">type</text>
<text x="658" y="1094" text-anchor="end" class="type">enum</text>
</g>
<g id="security_shifts">
<rect x="60" y="1040" width="280" height="198" rx="8" fill="#e0e7ff" stroke="#4338ca" stroke-width="1.4"/>
<rect x="60" y="1040" width="280" height="34" rx="8" fill="#4338ca"/>
<rect x="60" y="1066" width="280" height="8" fill="#4338ca"/>
<text x="72" y="1060" class="entity-title">SECURITY_SHIFTS</text>
<text x="328" y="1060" text-anchor="end" class="entity-layer">Security Operations</text>
<rect x="70" y="1082" width="36" height="14" rx="3" fill="#4338ca"/>
<text x="88" y="1092" text-anchor="middle" class="key">PK</text>
<text x="114" y="1094" class="field">id</text>
<text x="328" y="1094" text-anchor="end" class="type">uuid</text>
<rect x="70" y="1102" width="36" height="14" rx="3" fill="#4338ca"/>
<text x="88" y="1112" text-anchor="middle" class="key">FK</text>
<text x="114" y="1114" class="field">user_id</text>
<text x="328" y="1114" text-anchor="end" class="type">uuid</text>
<text x="74" y="1134" class="field">badge_id</text>
<text x="328" y="1134" text-anchor="end" class="type">varchar</text>
<text x="74" y="1154" class="field">duty_status</text>
<text x="328" y="1154" text-anchor="end" class="type">enum</text>
<text x="74" y="1174" class="field">assigned_post</text>
<text x="328" y="1174" text-anchor="end" class="type">varchar</text>
<text x="74" y="1194" class="field">shift_start</text>
<text x="328" y="1194" text-anchor="end" class="type">time</text>
<text x="74" y="1214" class="field">shift_end</text>
<text x="328" y="1214" text-anchor="end" class="type">time</text>
</g>
<g id="duty_logs">
<rect x="390" y="1190" width="280" height="178" rx="8" fill="#e0e7ff" stroke="#4338ca" stroke-width="1.4"/>
<rect x="390" y="1190" width="280" height="34" rx="8" fill="#4338ca"/>
<rect x="390" y="1216" width="280" height="8" fill="#4338ca"/>
<text x="402" y="1210" class="entity-title">DUTY_LOGS</text>
<text x="658" y="1210" text-anchor="end" class="entity-layer">Security Operations</text>
<rect x="400" y="1232" width="36" height="14" rx="3" fill="#4338ca"/>
<text x="418" y="1242" text-anchor="middle" class="key">PK</text>
<text x="444" y="1244" class="field">id</text>
<text x="658" y="1244" text-anchor="end" class="type">uuid</text>
<rect x="400" y="1252" width="36" height="14" rx="3" fill="#4338ca"/>
<text x="418" y="1262" text-anchor="middle" class="key">FK</text>
<text x="444" y="1264" class="field">shift_id</text>
<text x="658" y="1264" text-anchor="end" class="type">uuid</text>
<rect x="400" y="1272" width="36" height="14" rx="3" fill="#4338ca"/>
<text x="418" y="1282" text-anchor="middle" class="key">FK</text>
<text x="444" y="1284" class="field">user_id</text>
<text x="658" y="1284" text-anchor="end" class="type">uuid</text>
<text x="404" y="1304" class="field">clock_in</text>
<text x="658" y="1304" text-anchor="end" class="type">timestamptz</text>
<text x="404" y="1324" class="field">clock_out</text>
<text x="658" y="1324" text-anchor="end" class="type">timestamptz</text>
<text x="404" y="1344" class="field">vehicles_logged</text>
<text x="658" y="1344" text-anchor="end" class="type">integer</text>
</g>
<g id="notifications">
<rect x="60" y="1310" width="280" height="158" rx="8" fill="#fce7f3" stroke="#be185d" stroke-width="1.4"/>
<rect x="60" y="1310" width="280" height="34" rx="8" fill="#be185d"/>
<rect x="60" y="1336" width="280" height="8" fill="#be185d"/>
<text x="72" y="1330" class="entity-title">NOTIFICATIONS</text>
<text x="328" y="1330" text-anchor="end" class="entity-layer">Communication</text>
<rect x="70" y="1352" width="36" height="14" rx="3" fill="#be185d"/>
<text x="88" y="1362" text-anchor="middle" class="key">PK</text>
<text x="114" y="1364" class="field">id</text>
<text x="328" y="1364" text-anchor="end" class="type">uuid</text>
<rect x="70" y="1372" width="36" height="14" rx="3" fill="#be185d"/>
<text x="88" y="1382" text-anchor="middle" class="key">FK</text>
<text x="114" y="1384" class="field">user_id</text>
<text x="328" y="1384" text-anchor="end" class="type">uuid</text>
<text x="74" y="1404" class="field">title</text>
<text x="328" y="1404" text-anchor="end" class="type">varchar</text>
<text x="74" y="1424" class="field">type</text>
<text x="328" y="1424" text-anchor="end" class="type">varchar</text>
<text x="74" y="1444" class="field">is_read</text>
<text x="328" y="1444" text-anchor="end" class="type">boolean</text>
</g>
<g id="ocr_scans">
<rect x="390" y="1390" width="280" height="178" rx="8" fill="#ede9fe" stroke="#6d28d9" stroke-width="1.4"/>
<rect x="390" y="1390" width="280" height="34" rx="8" fill="#6d28d9"/>
<rect x="390" y="1416" width="280" height="8" fill="#6d28d9"/>
<text x="402" y="1410" class="entity-title">OCR_SCANS</text>
<text x="658" y="1410" text-anchor="end" class="entity-layer">Registration/OCR</text>
<rect x="400" y="1432" width="36" height="14" rx="3" fill="#6d28d9"/>
<text x="418" y="1442" text-anchor="middle" class="key">PK</text>
<text x="444" y="1444" class="field">id</text>
<text x="658" y="1444" text-anchor="end" class="type">uuid</text>
<rect x="400" y="1452" width="36" height="14" rx="3" fill="#6d28d9"/>
<text x="418" y="1462" text-anchor="middle" class="key">FK</text>
<text x="444" y="1464" class="field">user_id</text>
<text x="658" y="1464" text-anchor="end" class="type">uuid</text>
<rect x="400" y="1472" width="36" height="14" rx="3" fill="#6d28d9"/>
<text x="418" y="1482" text-anchor="middle" class="key">FK</text>
<text x="444" y="1484" class="field">verified_by</text>
<text x="658" y="1484" text-anchor="end" class="type">uuid</text>
<text x="404" y="1504" class="field">scan_type</text>
<text x="658" y="1504" text-anchor="end" class="type">varchar</text>
<text x="404" y="1524" class="field">is_verified</text>
<text x="658" y="1524" text-anchor="end" class="type">boolean</text>
<text x="404" y="1544" class="field">confidence_score</text>
<text x="658" y="1544" text-anchor="end" class="type">numeric</text>
</g>
<g id="system_logs">
<rect x="740" y="1190" width="280" height="158" rx="8" fill="#f5f5f4" stroke="#57534e" stroke-width="1.4"/>
<rect x="740" y="1190" width="280" height="34" rx="8" fill="#57534e"/>
<rect x="740" y="1216" width="280" height="8" fill="#57534e"/>
<text x="752" y="1210" class="entity-title">SYSTEM_LOGS</text>
<text x="1008" y="1210" text-anchor="end" class="entity-layer">Audit</text>
<rect x="750" y="1232" width="36" height="14" rx="3" fill="#57534e"/>
<text x="768" y="1242" text-anchor="middle" class="key">PK</text>
<text x="794" y="1244" class="field">id</text>
<text x="1008" y="1244" text-anchor="end" class="type">uuid</text>
<rect x="750" y="1252" width="36" height="14" rx="3" fill="#57534e"/>
<text x="768" y="1262" text-anchor="middle" class="key">FK</text>
<text x="794" y="1264" class="field">actor_id</text>
<text x="1008" y="1264" text-anchor="end" class="type">uuid</text>
<text x="754" y="1284" class="field">action</text>
<text x="1008" y="1284" text-anchor="end" class="type">varchar</text>
<text x="754" y="1304" class="field">category</text>
<text x="1008" y="1304" text-anchor="end" class="type">enum</text>
<text x="754" y="1324" class="field">created_at</text>
<text x="1008" y="1324" text-anchor="end" class="type">timestamptz</text>
</g>
<g id="settings">
<rect x="1090" y="1140" width="280" height="138" rx="8" fill="#ecfeff" stroke="#0e7490" stroke-width="1.4"/>
<rect x="1090" y="1140" width="280" height="34" rx="8" fill="#0e7490"/>
<rect x="1090" y="1166" width="280" height="8" fill="#0e7490"/>
<text x="1102" y="1160" class="entity-title">SETTINGS</text>
<text x="1358" y="1160" text-anchor="end" class="entity-layer">Configuration</text>
<rect x="1100" y="1182" width="36" height="14" rx="3" fill="#0e7490"/>
<text x="1118" y="1192" text-anchor="middle" class="key">PK</text>
<text x="1144" y="1194" class="field">key</text>
<text x="1358" y="1194" text-anchor="end" class="type">varchar</text>
<text x="1104" y="1214" class="field">value</text>
<text x="1358" y="1214" text-anchor="end" class="type">jsonb</text>
<text x="1104" y="1234" class="field">description</text>
<text x="1358" y="1234" text-anchor="end" class="type">text</text>
<text x="1104" y="1254" class="field">updated_at</text>
<text x="1358" y="1254" text-anchor="end" class="type">timestamptz</text>
</g>
<g id="anpr_camera_config">
<rect x="1440" y="90" width="280" height="198" rx="8" fill="#f1f5f9" stroke="#475569" stroke-width="1.4"/>
<rect x="1440" y="90" width="280" height="34" rx="8" fill="#475569"/>
<rect x="1440" y="116" width="280" height="8" fill="#475569"/>
<text x="1452" y="110" class="entity-title">ANPR_CAMERA_CONFIG</text>
<text x="1708" y="110" text-anchor="end" class="entity-layer">External ANPR Engine</text>
<rect x="1450" y="132" width="36" height="14" rx="3" fill="#475569"/>
<text x="1468" y="142" text-anchor="middle" class="key">PK</text>
<text x="1494" y="144" class="field">id</text>
<text x="1708" y="144" text-anchor="end" class="type">integer</text>
<rect x="1450" y="152" width="36" height="14" rx="3" fill="#475569"/>
<text x="1468" y="162" text-anchor="middle" class="key">UK</text>
<text x="1494" y="164" class="field">camera_id</text>
<text x="1708" y="164" text-anchor="end" class="type">integer</text>
<text x="1454" y="184" class="field">camera_name</text>
<text x="1708" y="184" text-anchor="end" class="type">varchar</text>
<text x="1454" y="204" class="field">camera_type</text>
<text x="1708" y="204" text-anchor="end" class="type">varchar</text>
<text x="1454" y="224" class="field">camera_source</text>
<text x="1708" y="224" text-anchor="end" class="type">varchar</text>
<text x="1454" y="244" class="field">gate_id</text>
<text x="1708" y="244" text-anchor="end" class="type">varchar</text>
<text x="1454" y="264" class="field">is_active</text>
<text x="1708" y="264" text-anchor="end" class="type">boolean</text>
</g>
<g id="detected_vehicles">
<rect x="1440" y="940" width="280" height="218" rx="8" fill="#f1f5f9" stroke="#475569" stroke-width="1.4"/>
<rect x="1440" y="940" width="280" height="34" rx="8" fill="#475569"/>
<rect x="1440" y="966" width="280" height="8" fill="#475569"/>
<text x="1452" y="960" class="entity-title">DETECTED_VEHICLES</text>
<text x="1708" y="960" text-anchor="end" class="entity-layer">External ANPR Engine</text>
<rect x="1450" y="982" width="36" height="14" rx="3" fill="#475569"/>
<text x="1468" y="992" text-anchor="middle" class="key">PK</text>
<text x="1494" y="994" class="field">id</text>
<text x="1708" y="994" text-anchor="end" class="type">integer</text>
<rect x="1450" y="1002" width="36" height="14" rx="3" fill="#475569"/>
<text x="1468" y="1012" text-anchor="middle" class="key">UK</text>
<text x="1494" y="1014" class="field">detection_id</text>
<text x="1708" y="1014" text-anchor="end" class="type">varchar</text>
<text x="1454" y="1034" class="field">camera_id</text>
<text x="1708" y="1034" text-anchor="end" class="type">integer</text>
<text x="1454" y="1054" class="field">plate_number</text>
<text x="1708" y="1054" text-anchor="end" class="type">varchar</text>
<text x="1454" y="1074" class="field">normalized_plate_text</text>
<text x="1708" y="1074" text-anchor="end" class="type">varchar</text>
<text x="1454" y="1094" class="field">vehicle_type</text>
<text x="1708" y="1094" text-anchor="end" class="type">varchar</text>
<text x="1454" y="1114" class="field">plate_confidence</text>
<text x="1708" y="1114" text-anchor="end" class="type">double</text>
<text x="1454" y="1134" class="field">is_authorized</text>
<text x="1708" y="1134" text-anchor="end" class="type">boolean</text>
</g>
<g id="legend"><rect x="1330" y="1290" width="390" height="180" rx="8" fill="#f8fafc" stroke="#cbd5e1"/>
<text x="1348" y="1318" class="caption" style="font-weight:700">Relationship notation</text>
<line x1="1348" y1="1344" x2="1442" y2="1344" class="edge"/><text x="1456" y="1348" class="legend">actual PostgreSQL foreign key</text>
<line x1="1348" y1="1370" x2="1442" y2="1370" class="edge-logical"/><text x="1456" y="1374" class="legend">logical link, not enforced by FK</text>
<text x="1348" y="1402" class="legend">1 near parent table; 0..N or 0..1 near child table.</text>
<text x="1348" y="1426" class="legend">PK = primary key, FK = foreign key, UK = unique key.</text>
<text x="1348" y="1450" class="legend">Complete column dictionary is in campus_anpr_erd_connections.md.</text>
</g>
<text x="890" y="1530" text-anchor="middle" class="caption">Figure 7. ERD showing enforced database relationships and logical ANPR engine connections.</text>
</svg>